<mxfile host="Electron" modified="2023-05-31T22:57:35.297Z" agent="Mozilla/5.0 (Windows NT 10.0; Win64; x64) AppleWebKit/537.36 (KHTML, like Gecko) draw.io/21.2.8 Chrome/112.0.5615.165 Electron/24.2.0 Safari/537.36" etag="2bV_6m8lLBFGKZgfldAp" version="21.2.8" type="device">
  <diagram id="C5RBs43oDa-KdzZeNtuy" name="Page-1">
    <mxGraphModel dx="1501" dy="722" grid="1" gridSize="10" guides="1" tooltips="1" connect="1" arrows="1" fold="1" page="1" pageScale="1" pageWidth="1169" pageHeight="827" math="0" shadow="0">
      <root>
        <mxCell id="WIyWlLk6GJQsqaUBKTNV-0" />
        <mxCell id="WIyWlLk6GJQsqaUBKTNV-1" parent="WIyWlLk6GJQsqaUBKTNV-0" />
        <mxCell id="-Vo-HyXcC2wnuTvdyI2S-0" value="" style="swimlane;startSize=0;fillColor=#FFFFFF;" vertex="1" parent="WIyWlLk6GJQsqaUBKTNV-1">
          <mxGeometry x="80" y="80" width="220" height="240" as="geometry" />
        </mxCell>
        <mxCell id="-Vo-HyXcC2wnuTvdyI2S-2" value="" style="swimlane;startSize=0;" vertex="1" parent="-Vo-HyXcC2wnuTvdyI2S-0">
          <mxGeometry x="20" y="20" width="180" height="40" as="geometry" />
        </mxCell>
        <mxCell id="-Vo-HyXcC2wnuTvdyI2S-3" value="FIFO" style="rounded=0;whiteSpace=wrap;html=1;" vertex="1" parent="-Vo-HyXcC2wnuTvdyI2S-2">
          <mxGeometry x="90" y="5" width="80" height="30" as="geometry" />
        </mxCell>
        <mxCell id="-Vo-HyXcC2wnuTvdyI2S-4" value="ch1" style="text;html=1;strokeColor=none;fillColor=none;align=center;verticalAlign=middle;whiteSpace=wrap;rounded=0;" vertex="1" parent="-Vo-HyXcC2wnuTvdyI2S-2">
          <mxGeometry x="10" y="5" width="60" height="30" as="geometry" />
        </mxCell>
        <mxCell id="-Vo-HyXcC2wnuTvdyI2S-34" style="edgeStyle=orthogonalEdgeStyle;rounded=0;orthogonalLoop=1;jettySize=auto;html=1;exitX=1;exitY=0.5;exitDx=0;exitDy=0;curved=1;" edge="1" parent="-Vo-HyXcC2wnuTvdyI2S-0" source="-Vo-HyXcC2wnuTvdyI2S-6">
          <mxGeometry relative="1" as="geometry">
            <mxPoint x="320" y="260" as="targetPoint" />
          </mxGeometry>
        </mxCell>
        <mxCell id="-Vo-HyXcC2wnuTvdyI2S-6" value="" style="swimlane;startSize=0;" vertex="1" parent="-Vo-HyXcC2wnuTvdyI2S-0">
          <mxGeometry x="20" y="70" width="180" height="40" as="geometry" />
        </mxCell>
        <mxCell id="-Vo-HyXcC2wnuTvdyI2S-7" value="FIFO" style="rounded=0;whiteSpace=wrap;html=1;" vertex="1" parent="-Vo-HyXcC2wnuTvdyI2S-6">
          <mxGeometry x="90" y="5" width="80" height="30" as="geometry" />
        </mxCell>
        <mxCell id="-Vo-HyXcC2wnuTvdyI2S-8" value="ch2" style="text;html=1;strokeColor=none;fillColor=none;align=center;verticalAlign=middle;whiteSpace=wrap;rounded=0;" vertex="1" parent="-Vo-HyXcC2wnuTvdyI2S-6">
          <mxGeometry x="10" y="5" width="60" height="30" as="geometry" />
        </mxCell>
        <mxCell id="-Vo-HyXcC2wnuTvdyI2S-35" style="edgeStyle=orthogonalEdgeStyle;rounded=0;orthogonalLoop=1;jettySize=auto;html=1;exitX=1;exitY=0.5;exitDx=0;exitDy=0;curved=1;" edge="1" parent="-Vo-HyXcC2wnuTvdyI2S-0" source="-Vo-HyXcC2wnuTvdyI2S-12">
          <mxGeometry relative="1" as="geometry">
            <mxPoint x="320" y="260" as="targetPoint" />
          </mxGeometry>
        </mxCell>
        <mxCell id="-Vo-HyXcC2wnuTvdyI2S-12" value="" style="swimlane;startSize=0;" vertex="1" parent="-Vo-HyXcC2wnuTvdyI2S-0">
          <mxGeometry x="20" y="190" width="180" height="40" as="geometry" />
        </mxCell>
        <mxCell id="-Vo-HyXcC2wnuTvdyI2S-13" value="FIFO" style="rounded=0;whiteSpace=wrap;html=1;" vertex="1" parent="-Vo-HyXcC2wnuTvdyI2S-12">
          <mxGeometry x="90" y="5" width="80" height="30" as="geometry" />
        </mxCell>
        <mxCell id="-Vo-HyXcC2wnuTvdyI2S-14" value="ch32" style="text;html=1;strokeColor=none;fillColor=none;align=center;verticalAlign=middle;whiteSpace=wrap;rounded=0;" vertex="1" parent="-Vo-HyXcC2wnuTvdyI2S-12">
          <mxGeometry x="10" y="5" width="60" height="30" as="geometry" />
        </mxCell>
        <mxCell id="-Vo-HyXcC2wnuTvdyI2S-16" value="&lt;font style=&quot;font-size: 24px;&quot;&gt;...&lt;/font&gt;" style="text;html=1;strokeColor=none;fillColor=none;align=center;verticalAlign=middle;whiteSpace=wrap;rounded=0;" vertex="1" parent="-Vo-HyXcC2wnuTvdyI2S-0">
          <mxGeometry x="70" y="130" width="60" height="30" as="geometry" />
        </mxCell>
        <mxCell id="-Vo-HyXcC2wnuTvdyI2S-17" value="" style="swimlane;startSize=0;" vertex="1" parent="WIyWlLk6GJQsqaUBKTNV-1">
          <mxGeometry x="80" y="360" width="220" height="240" as="geometry" />
        </mxCell>
        <mxCell id="-Vo-HyXcC2wnuTvdyI2S-18" value="" style="swimlane;startSize=0;" vertex="1" parent="-Vo-HyXcC2wnuTvdyI2S-17">
          <mxGeometry x="20" y="20" width="180" height="40" as="geometry" />
        </mxCell>
        <mxCell id="-Vo-HyXcC2wnuTvdyI2S-19" value="FIFO" style="rounded=0;whiteSpace=wrap;html=1;" vertex="1" parent="-Vo-HyXcC2wnuTvdyI2S-18">
          <mxGeometry x="90" y="5" width="80" height="30" as="geometry" />
        </mxCell>
        <mxCell id="-Vo-HyXcC2wnuTvdyI2S-20" value="ch1" style="text;html=1;strokeColor=none;fillColor=none;align=center;verticalAlign=middle;whiteSpace=wrap;rounded=0;" vertex="1" parent="-Vo-HyXcC2wnuTvdyI2S-18">
          <mxGeometry x="10" y="5" width="60" height="30" as="geometry" />
        </mxCell>
        <mxCell id="-Vo-HyXcC2wnuTvdyI2S-21" value="" style="swimlane;startSize=0;" vertex="1" parent="-Vo-HyXcC2wnuTvdyI2S-17">
          <mxGeometry x="20" y="70" width="180" height="40" as="geometry" />
        </mxCell>
        <mxCell id="-Vo-HyXcC2wnuTvdyI2S-37" style="edgeStyle=orthogonalEdgeStyle;rounded=0;orthogonalLoop=1;jettySize=auto;html=1;exitX=1;exitY=0.5;exitDx=0;exitDy=0;curved=1;" edge="1" parent="-Vo-HyXcC2wnuTvdyI2S-21" source="-Vo-HyXcC2wnuTvdyI2S-22">
          <mxGeometry relative="1" as="geometry">
            <mxPoint x="300" y="-90" as="targetPoint" />
          </mxGeometry>
        </mxCell>
        <mxCell id="-Vo-HyXcC2wnuTvdyI2S-22" value="FIFO" style="rounded=0;whiteSpace=wrap;html=1;" vertex="1" parent="-Vo-HyXcC2wnuTvdyI2S-21">
          <mxGeometry x="90" y="5" width="80" height="30" as="geometry" />
        </mxCell>
        <mxCell id="-Vo-HyXcC2wnuTvdyI2S-23" value="ch2" style="text;html=1;strokeColor=none;fillColor=none;align=center;verticalAlign=middle;whiteSpace=wrap;rounded=0;" vertex="1" parent="-Vo-HyXcC2wnuTvdyI2S-21">
          <mxGeometry x="10" y="5" width="60" height="30" as="geometry" />
        </mxCell>
        <mxCell id="-Vo-HyXcC2wnuTvdyI2S-38" style="edgeStyle=orthogonalEdgeStyle;rounded=0;orthogonalLoop=1;jettySize=auto;html=1;exitX=1;exitY=0.5;exitDx=0;exitDy=0;curved=1;" edge="1" parent="-Vo-HyXcC2wnuTvdyI2S-17" source="-Vo-HyXcC2wnuTvdyI2S-24">
          <mxGeometry relative="1" as="geometry">
            <mxPoint x="320" y="-20" as="targetPoint" />
          </mxGeometry>
        </mxCell>
        <mxCell id="-Vo-HyXcC2wnuTvdyI2S-24" value="" style="swimlane;startSize=0;" vertex="1" parent="-Vo-HyXcC2wnuTvdyI2S-17">
          <mxGeometry x="20" y="190" width="180" height="40" as="geometry" />
        </mxCell>
        <mxCell id="-Vo-HyXcC2wnuTvdyI2S-25" value="FIFO" style="rounded=0;whiteSpace=wrap;html=1;" vertex="1" parent="-Vo-HyXcC2wnuTvdyI2S-24">
          <mxGeometry x="90" y="5" width="80" height="30" as="geometry" />
        </mxCell>
        <mxCell id="-Vo-HyXcC2wnuTvdyI2S-26" value="ch32" style="text;html=1;strokeColor=none;fillColor=none;align=center;verticalAlign=middle;whiteSpace=wrap;rounded=0;" vertex="1" parent="-Vo-HyXcC2wnuTvdyI2S-24">
          <mxGeometry x="10" y="5" width="60" height="30" as="geometry" />
        </mxCell>
        <mxCell id="-Vo-HyXcC2wnuTvdyI2S-27" value="&lt;font style=&quot;font-size: 24px;&quot;&gt;...&lt;/font&gt;" style="text;html=1;strokeColor=none;fillColor=none;align=center;verticalAlign=middle;whiteSpace=wrap;rounded=0;" vertex="1" parent="-Vo-HyXcC2wnuTvdyI2S-17">
          <mxGeometry x="70" y="130" width="60" height="30" as="geometry" />
        </mxCell>
        <mxCell id="-Vo-HyXcC2wnuTvdyI2S-29" value="阴极读出" style="text;html=1;strokeColor=none;fillColor=none;align=center;verticalAlign=middle;whiteSpace=wrap;rounded=0;" vertex="1" parent="-Vo-HyXcC2wnuTvdyI2S-17">
          <mxGeometry x="10" width="60" height="20" as="geometry" />
        </mxCell>
        <mxCell id="-Vo-HyXcC2wnuTvdyI2S-28" value="阳极读出" style="text;html=1;strokeColor=none;fillColor=none;align=center;verticalAlign=middle;whiteSpace=wrap;rounded=0;" vertex="1" parent="WIyWlLk6GJQsqaUBKTNV-1">
          <mxGeometry x="90" y="76" width="60" height="30" as="geometry" />
        </mxCell>
        <mxCell id="-Vo-HyXcC2wnuTvdyI2S-31" value="数据存储" style="rounded=0;whiteSpace=wrap;html=1;" vertex="1" parent="WIyWlLk6GJQsqaUBKTNV-1">
          <mxGeometry x="400" y="160" width="120" height="360" as="geometry" />
        </mxCell>
        <mxCell id="-Vo-HyXcC2wnuTvdyI2S-32" value="UDP数据发送" style="rounded=0;whiteSpace=wrap;html=1;" vertex="1" parent="WIyWlLk6GJQsqaUBKTNV-1">
          <mxGeometry x="600" y="160" width="120" height="360" as="geometry" />
        </mxCell>
        <mxCell id="-Vo-HyXcC2wnuTvdyI2S-33" style="edgeStyle=orthogonalEdgeStyle;rounded=0;orthogonalLoop=1;jettySize=auto;html=1;exitX=1;exitY=0.5;exitDx=0;exitDy=0;entryX=0;entryY=0.5;entryDx=0;entryDy=0;curved=1;" edge="1" parent="WIyWlLk6GJQsqaUBKTNV-1" source="-Vo-HyXcC2wnuTvdyI2S-2" target="-Vo-HyXcC2wnuTvdyI2S-31">
          <mxGeometry relative="1" as="geometry">
            <Array as="points">
              <mxPoint x="400" y="120" />
            </Array>
          </mxGeometry>
        </mxCell>
        <mxCell id="-Vo-HyXcC2wnuTvdyI2S-36" style="edgeStyle=orthogonalEdgeStyle;rounded=0;orthogonalLoop=1;jettySize=auto;html=1;exitX=1;exitY=0.5;exitDx=0;exitDy=0;entryX=0;entryY=0.5;entryDx=0;entryDy=0;curved=1;" edge="1" parent="WIyWlLk6GJQsqaUBKTNV-1" source="-Vo-HyXcC2wnuTvdyI2S-18" target="-Vo-HyXcC2wnuTvdyI2S-31">
          <mxGeometry relative="1" as="geometry">
            <Array as="points">
              <mxPoint x="400" y="400" />
            </Array>
          </mxGeometry>
        </mxCell>
        <mxCell id="-Vo-HyXcC2wnuTvdyI2S-39" value="" style="shape=flexArrow;endArrow=classic;html=1;rounded=0;entryX=0;entryY=0.5;entryDx=0;entryDy=0;exitX=1;exitY=0.5;exitDx=0;exitDy=0;" edge="1" parent="WIyWlLk6GJQsqaUBKTNV-1" source="-Vo-HyXcC2wnuTvdyI2S-31" target="-Vo-HyXcC2wnuTvdyI2S-32">
          <mxGeometry width="50" height="50" relative="1" as="geometry">
            <mxPoint x="520" y="380" as="sourcePoint" />
            <mxPoint x="570" y="330" as="targetPoint" />
          </mxGeometry>
        </mxCell>
        <mxCell id="-Vo-HyXcC2wnuTvdyI2S-40" value="" style="shape=flexArrow;endArrow=classic;html=1;rounded=0;exitX=1;exitY=0.5;exitDx=0;exitDy=0;" edge="1" parent="WIyWlLk6GJQsqaUBKTNV-1" source="-Vo-HyXcC2wnuTvdyI2S-32">
          <mxGeometry width="50" height="50" relative="1" as="geometry">
            <mxPoint x="770" y="350" as="sourcePoint" />
            <mxPoint x="800" y="340" as="targetPoint" />
          </mxGeometry>
        </mxCell>
        <mxCell id="-Vo-HyXcC2wnuTvdyI2S-41" value="" style="shape=image;verticalLabelPosition=bottom;labelBackgroundColor=default;verticalAlign=top;aspect=fixed;imageAspect=0;image=data:image/png,iVBORw0KGgoAAAANSUhEUgAAALkAAAC4CAYAAAHI9n1vAAAAAXNSR0IArs4c6QAAAARnQU1BAACxjwv8YQUAAAAJcEhZcwAAFxEAABcRAcom8z8AADORSURBVHhe7X0JdJRXdqa7k3QmmWROppNJJpNMJtOTTBLPOZ2k6W7T3mQk1YJUq2oTmwABYher2EEgFrGIHbFIQiAEQggkse/7vu9gFhub9oKx23Hbxkuz3bnfrffjslwCSaikKvy+c+4pler/3//+++677977lvucRnQhMTnlH1sluei11i6KszrpVYudWiW7qbWnDXXq2Y/GTp5OcxcWUX5BMS1ZXk7qtvrh4cOHVFeoW+oHT/t0dfuToW6pH8xOn7r9yVC31A/WlFR1+5OhbqkfTA7fAHX/E6FuqT/U/U+Eyen7N3VL/fD+B7dVEeFx4vR5Mjm8ZHUHGvYWr3FfCMWdO19QPPcHi8svZPO3I2+HdOrcqx+VVa6nTj0yKcnbtu4PQyHoZEaBiXYPJfva0QuvWajv0NFUUb2BO6OT+gweTitWraGXzTa5xrje6kmdqoqqHbgwZ3KeFDR55lzypXWlfYeO0qYdu+mFVhZ6hQvdf+QYF+ylJO7pRuHygLqwLplfGRf/Is5E8xeXEPrHus3b+M0c9JLJRlt27HlU4KIlpVS8YpX8rW6vG0x2zzjctJ9rvnn7rkcFhtI41k/4VLc0DDULDSV1ydMjYgWHwuIKkNnW5p/VVw2NZwLoMFDNUGivWh30CmtQ6By7vz31Hz6GZs1fRPMWLab8wmIym80/VrfVDSi8rjDbvKvUbXUDF/6ZuveJeC3JXX+1oO59IjAGqFvqji++/Erd/njs3n+o/oVH1OapT6OqW+oOm6+9urV2tIxvLXqex9Mr6ra6wWz3/oMq4xGSve0eDRyOQHsqKFlBcxYV06Tps6UfgOKSfP9dFfF4oMMYhYESbClibixetkLMjexJU2nbngPS2UaMn0xlq6sfXQu/QBUTHrAMxuZOo6xRY8UygGNRuKyMH+KhUROnUFpGbzY/7DR2SnDgHjk+91HhIHOyq4UqKjxw0fBxE8XMy8gcTDZmDR548fUrUsBLpmT5TPKkyicexp9V6vYnAzehcLhFZh5P8T2UYL0pi+xjdUv9ULPAUEry1MOWrA2wJ0MLRZuonxoHFqf/KOxG9VVDQyM60MrlagGHtNGpqbo7FFYkYLJ5WqtHRA4wDDZs26ke2XiIt7kuqEdEDmanNxDHxnVjw+JOjV3RGc02iyo+smA78V4+G0yNiTffervpxmjYS42NOFubv1DFRxaIejU2LC7fTFV8ZGF2+E6OyJmsHls33HznPfaiHd+KLRoUYFcxZ+pMejGhNQ0aOZZas6NmdvpnqMc1PuCB1ES7Lr3EA6lZObg6iMiixdqk96DS8tU0a0Eh9R40nJbx38tWrhbTfcmKchowYiz9il9i5eoqmjp7vpRXxn+rcu6pxz8doPNrVhL0UmIS9eifRZ526fx3Mq2qXk9jJk2jlq0slN5nIHtIOdS2Sw92XvKo98BhVFG1jsbx3xmZg+QlJ0ybyS/YPWzZ4cjkTLGrKtUPJrunxCjknfduUX7RUuFUy3gr7dyzn/LmLpCXOX76HDtGPhaLJBrIPmSgU4ZUtNeAoZQ5dBRzOF8cp9BKgWzsjnTpM0DcwND/m12+KaoKTw+ry3/DKBjN365rT3H9dh84hOkGEZcuvfvTvMIlYSuJfnDpyjXxlYaMHkcmu1darFVSMPhvcvleV4+KHBKSU34SWinMxIV+ryuZmVSRzQOEdsJVLBzBW1W3RRdau1Pv1aws4h8Oh+NP1SUaGhoaGhoaGhGB3d8hfEjuKYndusbxgGoDjCXY2sGZ2+DsbRzI6pBZXMykGAvO4EjgejgLHXtksuuWzT7oDJq7sFAWoM0rWCyL0OYXFpO7bafIWoziLLDH0tjo2ndQZCue6PBNwuKexsae/Qcjb6NDVBobF9mlU8VHDnAMIgFVfOSAin/x5ZfqcY0HLvoHwSdECPAZMS3d2EhOafsT9YjIwOT0HKjPatW6wuzwdFOPiAysds9PsbqvsWGye/erR0QOGFwaG/HJ7k9V8ZFDJDTLq1ZX5DWLzd+ebn/4kXpk4wBmgio+cjC7/Denz1uoHtk4wCJhVXzkkGjzxiFQ35gYMHxM5CsOPO3c0e/u3qUho3Mk8muE6uyBDmx9+l9Vj4gMGtJBJ0ydLmawUVEQws/etC7Ua9BwGjp2IjlT08Qkhp3eokXGH6jHNR7qsvhu9vyC71TUIFiZC5eUEpyTsjVradaixbKGfVXlOsrolyUrwfNm50vcnZ+1QT326WFx+7++zFZdKJauWCVOBjgWrrKYmcA14CbWvI+ZOJUy2BaHszFuygyaxr/PXlBIGJlnzFtEm7bvogRuERCcFqzKMrt8GaoKDYPJ7h/evd9gaeraKgqayRVZWlZBNq7skuWraBfb3uA2FvJXb9gs0zKYySgqWcGeUEfCzF/fISNoEHtMBUtLyRlIC1sulIOqSv3wvM/3o3AFglDR0lWVarrFRnsPHaWJebPErdu0bafMzOH/S5j7XfsOlNk4MAG/4/+DR42T+aRwZdekBr1Aosvjx83gOrY+YKkg/gYXsQViLvuU0BrGIscXE5NEk/g6dJEZuZn5i6hzz0xpsSFjcmTjB2bs8B0Oy4LiZeLPhlY0lBrMdcAoBHKIJbZWV0Aqf/3GW9SV/VNUHLtRpsyeR3sOHpLJqkoWEcyPgruHj5/kSo+XThhaKRAqf+z0WeqbNfJbE2IYudXjGw5MkYQ+KL8oOOsWb0uhg0ePi/ePSd9Lr1/hF+gqL+Lv1I3y5swXzuIl8+YseFQpEP5//PQZmUsFQ4byi+H/mH9Vj208hD64Q0Yf+fSndaWVrOpQuQ/Yttl78DBz2f7oulBKTe8uK6537jso++pS2nbiTjtAfsMUY8v6LlKvD0K39PzyNbOIQrK3Da3fsv1bTf046ps14tHWoNYpbSjOltI0u0ogf0YlwDnj7/oQ5D0x2W9RRTYdLO7UT8JVqE7k8PRWxTQPzA7v0rAVq4VMDs8cdWvzw2TzmMNVMpRYg+xQl0cfwlbY5b+ofo5uoMNBrbV2p0Z+lYSGhoaGhoaGhoaGhoaGRtQg3p76V+rP2IXZ6RkaLi4RrYQQMYKWVqv1D9UrxCaMHfyjxufS3bt36d69+3Tv/n168OCBUH1OVGsK+NK6UJzT+feq+rEJk9N7E0zH1FAsYHlFFeYihqrqxybMdo9NwvWYVLn9oXq16MW+g4cRlo38mqVIw5jcGTwyW71a9OLLr77GyTR3VNVjF2aXdxmYjlnmWMCrrZtgrVikYTKZ/jMOUIKKefvX76hXi15g7Y/V6v1vqvqxC4vTdwfS3mvgUPVq0QusqDF5vf9bVT12YXL5OsaKFbOoeBmZ7L7dquqxDZxFCAfk2vU31etFJy5evgJVeFJVO7bBDH8H0t6t70D1etGJTz/7nFolp8T+YAqYnYEXrW6/LOaLdjToTM1oBc40hIo5e/6ier3oREr7dGzsiP3BFDA7UmRZVPuuPdXrRSc69ejLTE/poqod24D9Cw/1V/HRpWKgx7fu2kt9Bg+TtZ+ynNLp3aKqHfswu3wfmZ1+OnL8pHrlyAORzTMXLkm0M97mkT0HT1qnCjUYzwMqlj8jfoRloyand/srFvdfq1eJHbCujMdLtOmcoVjSOHj3/Q9kATs2aWCROpZch2NmKMmmbL52Qt5sWck/g+/HAmAsnMfRw6uq1suJUNikXVCynAKdutGUWfnSILgfeyX4811uQJ96veiFjRlT31jMnS++pJKyCtnygAXKoXuOnkQ2X1tysKTCV5gycx4VLF0uOwhQhsnuoWXllbR67Ubq3CuTcqZMp1atXXKw2fzFy/j6udRv6CgaMGyMrOZesbqa5hcukbAG6oGNLXMXLSa7mjvAbnrZuOL04uS2yG7IrQ9YxZxABaFHQ7F52045Rwz7/LB9KJRxjyND8iDdC5hRUAWFJSvI7AgeEI/ww7LyNbKBBptr0nsPkOMIsA8FuyWwh2XCtBmiSrCFCbveVq/bSBu5Pj0GDCFnoIMcOJ/euz+VV66j6o1bqG2XntSxe19h/IicXCln1PjJ8h09ObR++B5sCP/eeLvnp4oNTYs4u/cfalasLmQwF1tKsIkHp9MtWFwiL4sBumUrK6ut7nTo2Enavmc/jeT/d+nVXw4Sxz1VzJiN23YI82YvLAyqF6b5RUtlmxU2RoB5/rRusjsEPQLPwflr1Zu2yZjg4AYoLCmj7FykNHGF3c5SV8LMGgvg14k2b2fFmsjClOTJwyagcJUxCKZbSrtOsvFoZeV6Ob/N37GbYpZDVMGZCxcpd/ocYRDOOIc+x8ak7bv3ETasogzsY8P2mM7cABks3fmFS+W6w8dPUff+WSzhXeQcRBy+jgEWjYteA1WxhiUeG/r6cw9EupasMRPkM71XP2nIcPWuD4EHJodvq2JL04C73KrQSkCSZs4vkLw10JsvsPRu3bmHTp67IDvBZs0vFBUAfYxGqODBbt3m7eRp15kOHD0hzIUqGDhiDG1j9dV70DBy829gHkxVqJR2rBqyJ02TQRTPxHNgqWCb3KqqdXJcIg6pxE6yl022R3ULR3gWNigiDReEweiNjyNIeKLTP0ixoOlhtbb7L9C7NSuGnZRzFhVLl4btjOQF+w8dEWYKw/nloD+xD/bqGzdku5IjkKak2ClSD+aeOneRRk+YLJvAyivXSqPg90XcM/ZyeehJxqD+s5fjv1OPcJTo8MhuUOyIw0ZKbJlCfaDeLl+7/h1zFNea3P7F6pWjC2ZX4OvQyoLwMphY+M1/fCIDInbh4YRRhIkNVQAGDx2TQ8dOnaEsbMxkJuL/IJh5N96+Kb9BJUCqaz7DeI6J/YeLl69KUgk0uvEbnoOBEPsuUT6kG4KyoqKSlnHv6D9s9LeuD2a98B3yPef7PfVq0Q+onHADFCQcKgNq5NyFy6I6Qrs0mD8yZ5LY3G1YyqH3jd/qS3hWZtZI+viT34rtju/oOeu37qC2bLaG+gEYxLlh3q9z+pBoRoLL4wzNlRJK2Cf6yaef0fnLV+RUbyOHULhrG5uCBoDvHhsDL6iqPntoYbP98ZMsnUhS0M5uQxa7r42q0vcLzIDzlqewjetK6ElmlzdbPVYDMNm8vWBHh2NYQwjbKU1OX4kqXuNxiLfb/8pYM1kfkmCV038MR1yoojQaAh5I3w/HYBDGBGuK/9dxVuvfqss1GhMWh6+3xRXo17Kl94/UvzQ0NDQ0NDQ0NDQ0NDQ0NDQ0NDQ0NDQ0NDQ0NDQ0NBoHcU7nnz2Xnf1D9TU2YXUFboemzIxq8rSVtd8JDm+yqn7swV5L8ppoJSxpNjn921X1Yw9mp+9t42WwTBgk+VpBrZ2y3yb4ibytQZLcrSBLcC8PVtKCcA82bxnrybEWEUvisJQN67yRXqlTz0zZnjJw5Fih8VNnhuR5DeZ6NfK9Gjlfjbyv+F6xbhPF29xvqurHHsxO72YwGxuk7t67J8f73b9vHO/3UI73A6LliL/P79yBUHylqh97YGn0YmkwdhX/5uP/UK8VvcBhZ8zwB6r6sYcEV4c/N9aBr9+8Vb1WdAO75FT1YxPJ/uDq15nzC9UrRTfiYv1kOYvaOgLVEgt4lQduVfXYhNnhXQ+GJ7J1EQtwtUunOFubv1DVjz3wwDnZ4gqIpRILQC5JS7LnNVX92ANcZgyc2G596ep19VrRi3GT83DmSi9V/dhDdnb2D+E6Q62s27RFvVb0Agl12bGK7ROfsXsMDB84IvoPHl7N3maCzT1fVT02wR7nQTAcqiXaceb8Bbj311TVYxNmuycfDIcej3bcuv1hbHubQILD8++QbuyZfxBlqRFq4u7dewim3VdVj03ExcX9PrZaQ8IvX4luSwUCgaikqnrswrBUipeVqVeLXiTYPbHPcDa1/gMMh2MR7cDZWarasQuzIzhwortGOzCxEfPbxhOSvWkIYGHmJtqBw8sszsArquoxCnicLDmIN0c7+maNxFF5GarmsQswHOdV7T14RL1adGLG3AWYOx2oqh27sLpTH0KPL45yS6VgSSkYHtvuPWB2BPMKdeqRqV4tOrF81RrE78+oascuTI6UgTJwtnaqV4tOXLhyDe79h6rasYuX1YHw0c5wLOOANaWqHdsAw7Eg6M6XX6rXiz5gvcwz4d4Drd2pylI5rF4vOvFMeJsA27fnMHBOnjlHvVp04IPbt2nC1JnkbttJzrfFoZaqyrGNBJd3OBie1qOvetXmwe0PP6K8eQupTXoPejGhddjzbJE2AYfJm53+UlnOHItIdHh+jtg4jppuSnz62We0sHgZpXXvIwcJIyIoi0JrMNkgnL6Pw4g7ZPSWo7cRX+HPTxMcvgHqVWIHWPEKS+W+WswZCXzBg3JpRRX1yRohmbigk2tjsPH/BJuHeg4cKqc5z160mErKVtEv4syymrdr7wGyShdmLdQNf+5LdAX+Rb1SdAOVbpXkpt/dvavY8/TA6tx1m7bKifg4nRlWxuMkGARrCddg2XQRe784UB6pJWfkF1BKu86SM6KkfA1Nn7eAAp0z5KD4NundKW/OfLkPPRWL+NkrXYa8per1og+sEz83OXySPKOhwBLn3fsP0bjJ00U9gXn84mEZW5OgTnD9qAlTaG7BEsovXEK/fM1M0+cukDWQ6zdvIxv3Quh1lFlaXkkVVetobG4edeSx58WEJEpmFVPKHqnxTKgcqyuAY1dHq9eMHpjtvvGo5OQZ9bNUjpw4RTlTZsjCfaik2g5ur0mQRjAKzOnaZ6Awdg6rjA7deou6yc6dJpJctGyFLOC3pgREdSwsLqWlK1aJKkEiD3yOGJdLJSsruCcMkEbDpgEkDUGWFpSP+zC7xdbYRZPdHa9euXmR6HA7rGyP49T8x+Hy1euSOwJzoVhjDh0bjqG1EVLMIC9Fj/5DqF/WSOozZCRlc49I7ZQhKmNB0VIqLi0T9VZRvZEyMgdL7iCkqWmT3lMYiFxAfYeOpmpWV0jShPAy6r1q7UaJuVSu30TtuvYSqYcQIHfR0NE58nyoHDh67HssiYvr+J/U6zc9fD7f70H3QdeG4s23b0q6GEgJGNyQbCQYkJEBBbl6JjPzwDSUU7VxMw1Evp+1GySnD5gB6UbamlnzC/j3LdSlzwBRTxgkK5ihK9dUS8qCMZOmUstWwWQhyJSyhpnclwfj2QuK5IR9EHIFgZAvAgN0zXpB6kXl2LxZig1NC7wwKoqXApPAYEhazYo+jh5ZFyoDFdLQFK8oFwYb6WX2HjoqTIXFAbsa2VKgMrbt3k/VrKsnTJtFPQcMFWcH9+G6zTt2s6WSIWmCg3uNHKJyINFoQGTKwrVJ3jaUwz0G+SxQF6M+TyJROU7fB1yWW7Ej8rA4fV+Fq8zjCC/7zfcAM7mYpjKTV1RUiwMjaWnMdlYDVdLV16zbIAmafvZyggSjkFhj2+59VMi6evDIseRs01FUBNKJbdy6nSZOny3qAYmdwOgsVg0YRCHN0NNIb8ODojQSymrbpYc0bGgd60PoyRAK/rvqRYfjTxVrIgO2VFbXrEA4CpUaqAhYGNh5VrCUBziWrl+8ahLdCYk8f/kqbWDGIYuJoUrQvTGgVa7fzLq3gzANDYNykEyvonq9vPgutng6slOEv9GIw8dNkr/xXJQBxlRv2iI2Op737cZ/erLzWKNYExlkP5f9w9qScBgEnYnsgZAqpAXDYAYd/+8vxYvtDFVy/PRZ2rRtp6QOG5Y9Xv4P9QRLZMvOPTJAbtq+WxoOKmtEziS2PMolE5anfWfJH4RegcESFgwyYhkpbbBdcdSEyWJ+YkviuCnTadqcoIWTy9ej1zQG45N97SnR5vs7xZrIwuwKfOsQdkgZPiV/GjsjGFgLliyjn7+SKBILhl68clXytqWytCGtI9QCdHPW6HEShUSuIAxosBheYuZBfSDd4wiWWsRNLlx+nXwdulL7br1oFl+H+6AawGSYmpBoqCQ4QwNYdcAMRCoaqBmjnvgbmbPms+mI7w1hvOhyu3edYkXTASkkjUpAqidOnyO5MhHLAJOxCfbtd9+nHcxk6Fu8PBiDDFN+luBDx46LFzh4VI5IKCQTHuEQlviyyrVy7dkLl8if1lUskGnsKfZgSwbpiI0sVZDyfmw2Hj52UnT20DHjaRL7Cbg3VK3VJAgAGraA1VZbHkfqotMlLuP0XW1pNv9YsaBpAYcitEJ4QUjjGzfeop17D1Dvgd+k5oV5NnXWPDp8/CSrjYU0kyUUTEOuTEhmvyGj6MCRY+zU9KKVzGx/x67SS3rCVOQyJ/KAhwaBfkZ5UD/L2fTbuH2XNEJxabnY40/K42YQTMuZ+QupcsMmyXwIu93Q/TUJlhn7Hzfjk5P/Rr1688Ds8Mj68VBCpZFE7/0PPhSnIi2jD23ZtVfyZmLwQ09AeODfX2pFh46fkHRjGCyLlq0UnW+ohtyZc2VARKMeP3VGnBYwHJ4i9P949iyRg234uIli0dRVNaARofcPHjkuuhz/Q50WLSkVxoZea5Xvgd9a7J7/p165+cEVKqlZUdArbAOv3bRNnBKj+2NQ69qnv9jYeEEwCQzG9T/9VZykHTt68jQPohNoWflqUSP47RdxFkkPfPDYCen+kG7jORhcsQdJvj9GhWAMmMI97J33bzHTDXVko0xWQ5Dub70DC03rlMDX8cnO6FzFlejwdjZW2YYSTLitO3dTLutUeIp7Dh6lVLaLYZ7hhfGJmZotO/aIasBSNUgb7m3xSgLtO3SEjp44JRYOpL82KX6ZpRZZEbfxWGE00je/2eS3XfsOsp72yKA5lccCpDIrWcmNGpovjhmN0AW/j0O9WvQizul8LVzuHkhwWx4I8wuLRcrwP2xFhG1+8sx5yYMM+xr7QSfmzaRDKqPhqfMXZeCFJVOzzNoIPaiMPWDk6HyBxwyYgzAfYVaCqXjO2NzplF+0RMaWR4xmktS+Dk+6ep3YgMXi/uvaEiYh3/GdL74QqcUKLjDSUCfQpQ62ePaxqoHE4bvxW30JTATjMTiPnjhVegzGFWS5RUZb6PBvMVp6ZqB54iSNhB/UNtpDsnNnzKVUlnj5zt19CJtx5y5elrTA+L3mPQ0lqB8Q9m8i2SkaMvR3OC0WV+o0VefYB+vDm6EvaBAGPHiSu9hsRDZyWAJI1Rvu2kgQeiAPkAtVNZ8tsNWwL5y0Q/IwuNU2CEaCZD7T5W9677CpYXb6F4QzG5uKgvHs1P3Z2c/F9slv9YHZ4W33pIBXY5NkLnQFLiDZtqrG9wvxNvfParNgGpOQP5kZ/XbSs5Af+WkRZ7P9RVKEJD2otgKfJCbFyJqTpgS7zfWeNaqN4BliYDbZ/S+p4jXCwer2vxWOgXUlMJkbjt3x1Ng9kbOpkWj3VtXmJNVGuD6JxwKzw5+mitGoD8wufw7WgIRjbk3CoGtyPQO71Jobic6UpMeZjVh6zE7SZHW5RmPgJZvv7wyzEWpDctk7fQ8sDs8idYlGY8Pn8/3I4vQvbuV2/6v6l4aGhoaGhoaGhoaGhoaGhoaGhoaGhoaGhoaGhoaGhoaGhoaGhoaGhoaGhoaGhoaGhoaGhoaGhoaGhkazID7Z84rZ5d+f6PSdMjl9xxtEdt8Js8N7KhrI4vSdjRK6ZnH5b5ic/osJDk9mXFzc7yuWazQlLE7PCHtq2neOL9DUuCSZ6By+Qmb5D4Kc12gysOZr1zol9WF9T6ZpDDI7QymY3uRxZBzvGUo48Pwb8nyLcOo7zl41CGe6BtOtfEM4ixWH4BqEFAEtQwjfv0MJjyecGw7C3zjzGwf54hAa1ujH4ny+P1Gs12gqPP/88z+yOL3HQg+lgfDgaOuufQdKEg1Qn8EjJJVB5pBR1HfISDmfdvjYiTRs7AQamj2BxkycQjmT8+R82bGTpknKgvyipULIlFVUupJWVa+n8qr1cup+1YYttGPvfqHte/bJEdfHT52mk2fOKjpHZ85doDPnv6HzFy/T+Uvf0MXLV+jSlauP6PWr1+jKtTcUXac333qbbt3+kN4HfXCbbn34EX3+xZd058uvJL0xPpsCDx4+oEBHZHZxfWRyu/9SsV6jKcHD6CRJ9qe0OQ5XRhYwjcbB53fukC+tC45hv2tyeF5QbNdoSryaFPgXNhl+h+MeIeQY6pFxDZkgNJ4eDx4+pPF5c+QQ8USbt4Niu0ZTwmq1/qHJ6d0emrUD9uRqNi80Ggfbdu6mV61OpNeaodiu0dQws1GOcwsNkwVOW5suPenjTz5RzaTxNNh74BA7vm6k59mtWK7R1Iize//B7PTeMI6ihcmCv995733VTBpPg2Ns+iU6fGSye0+09Hr/SLFdo6lhsnlXISW0YbIgxIZ00hpPjw8++g1l9MtCnq63oFAUyzWaGuZkVwuz0/eV4YAixou0gL+7d081lUZD8ZCdz1Hjc1lxOMhs87ZVLNdoasQ5nX9mdvrfN5IuYQIGEyjbdu1RTaXxNJg4babY5RadcaB5kej2dsZh+YbJgsyNi5aWqmbSeBogEz4y3psdvmGK3RrNgQSX91cWp/9zQ5sjj2z7rr3oo998rJpKo6HYd/iorGFpZXPtttlsf6xYrtEcMDl9a9EYEHJM8SPD9eETp1RTaTQU1958i1LadYbiuJ+c0vYnit0azQGT3deRBfwBYuawy+OsTpqYN1s1lUZD8elnn1Nqp25YLKaFvLnxcnLyfzU7vbeCeUqDOa0798yk3376mWoujYbg3v37lDlsFBZqPbTYvL9S7NZoLphdvvxg1uOgyYIoy4atO1RzaTQUeXPyKd6WgkmhAsVqjeaC1eWNg7liTPNjfXR+YbFqKo2GAkuM420eVhy+/YrVGs2FFx2OPzW7/HuMdebQ5hYW+Dfeels1l0ZDcOrsORHyRHuKFvJogMnhyTOSzcIBjU9OobMXLqnm0mgIXr92nbDdMCE55WYrV+D/KFZrNBfMZu+PLS7fe8airTirgzIyB6vm0mgI3rt1i9K694HCeJjg8LZTrNZoNvh8v8ca/IQh5K+1dlKHjD70iY6yNBhYwzJu8nRWGC4y2Xy9Fac1mhNwQA27HCbLyyYblZavVk2m0RAsKFpKca1dZHZ4cxSbNZoTVqv7b01O7xVDm2N3e87UGRLz1WgYikqWi5AzXzdarX3/ULFaozlhdvrn2f0dRMixmQJrzt+48ZZqMo36YuuufWRNScXuq+uJjtT/odis0Zxo5fS8yAL+W8yAyjQ/2+ZVGzarJtOoL37zyW+pXdde4OPdVg7vPyk2azQzfmB2ek8ZM6BwQDOHjFRNplFfPHz4gDr1yKRWyW5KdPqTFI81mhsmhy8TZ7NAyLH81ts+nd5866ZqNo36olOPvjLvYHJ4sxSLNZobZlubfzY5fZ99cwCRnYqWrVBNpvEk3H/wgC5cvkIbtmynWfMLyN+xq8wgmx3eMsVijSjAD01O72JjnTlCiaMnTqEH3HgaQdy4+Y4I8bLyNdQtczAl88gHR/1Vq0P2y0Jzw6cB/0DYmMJO/Ttml7en1RXomejw9YhP9v6N4rdGc4BNlt7GcXJBB9QlZxZ+X/DerQ/o4NHjtKKiUs6BtAeCHR5CjNAqDhU1BLguhPVAhtDjE2fdYBN5shzyFLjPQn+BhX+YyZ7ykmoCjaYAN8wpNIKZGwZHVmzctlOJQOzjsy++oAOHj9Lm7bto5Pgp5OvQhbVtG3G0MXLhUxaqhQhqXckQ4tDTdgeNyKZpcxfQ1JlzacykaWz+raQROZPkGhA0PwjhRuPgp0SH92McAW1yuL04+Uw1i0Zjgu3yEmNiqFWSW3a6fPX110pMohtffPkVXb5yjbbv3kuzFxbK3lVnappEOXAsHjptqDnREML94A+2uYE/2FX1CvsvWPOzZEUFLS1bTYUlK2js5DxK7dxdTJbcGXNo8sx5NHzcJBowfAzNyF9Iq6o30PZdeylnKnb4u8TZh+Cjo+E7a3qZr5Cj/dyBT3mU3WN2edITXa5/UU2l0VBYHN5/MtaZQ8vgiOc3335HiVHz4/Vrb9CJ02dobsFi6tK7v0SBcHY5zh6Xs8JZUMIJZ12JO/l3TIxumYNoaPZ4eU6P/lk0KW8WjZ0yk3oNGibrVJasKCdHoAO98JqFBd5GXh4h5hUuoYrq9bRyzVoZDUewgHs7dKWxudOobXoP+tnL8VznJOo/bDSt3bydVq/dQNUbNtP0eYsoLaOPjCggPB+nEGPuAnVCB8NpC2zr32cf6g229ycm2lxx3HQ/DLagxhOBXebMuE3G4aA4siJvznwlYpHHe+9/IH7Aysp1ck56G9aGsGNbtrKKID+tEBtkCLBhN+MTgpSdmydnrw/LnsAmTS4tLF5GU9jcgHaFZoaQLlhcQkPGjJcISnrPfjSetfHshUV8/WTK5Wt7DhjCdncb6tEvi1ZVrecOuURMFzFfZs+neUUlUn5P7jBQIi/wu3XI6EtLubPgedls2uROn0Nr1m/hDrKDpsyaRx269ZZ6gsADjB7oUPgOhYSAAeY5rCmB97gDVLHZ40h0OPRsa20w2b1DjGl+DPF9h4ygTz+/o8Tw6XDrg9t0lbXxmvWbKGvUOIknwwcwMkJg2A42ZnjhrC8FRyS3aHlDoGESoPNOnZ1Pa9ZtpPHTZksCgYJlZbJMFvY5Mk7gNKw+g4dT5fqNtGjJcpo0fTat3bRVZoMh0Ig+QfP//FWT8AkaGh1k7aYtVMxmSyVfV8nviZWdfbmcjt370k9bxnH5/J7cwfpkjaAy7szVG7bI1sPSVVXUtc8ASuuRyWWzxu/SQzrAL3mEsLMQ44Su5RXV4lPMKyim3oOGy/sZwo9O+yKbZeiQ+D+EXkXL7rCdf5xNoH7mZPe/qmb+fiPe6/0bHgqvg0kQDAjJidNnlZg+Hp/duUM33r5Jew8doZwpM6g7D/UeNinQWBCcb4T46Wzj2gjaGE4f6g3BQ+eBWYNsGNUsoDAJpkCb8vccNjUkrUorC39auZ6dqai0jLbs3Eu79x+Wk8WKWbtC0DEDDNMCgoT3+OVrZurcqz+VrKyQUQdCurC4VLJ1DGPTZOHS5Xz9KLHJ0aEgpOhUC1hTl65aIxk6IPhwfHOmTqcNbNLkTJlO7br0JA/b+wP4WUXLy3nkyGNTJ5e69R0o5SD2XsSdsWx1lWQBQadAVpCVVeto594D8l7tu/aUeobjD4QfCgz1au0OXGLhz0+0+1tip5hq/u8PzE5vpWGyQAvCmQLufPElmxS36NDxk9JomVkjediWVCLi3BkRikgJMUjiz/yJIRvPgm0Lrdu932CataCQ1m/ZIdoxd8ZcOetx5vwCtptXSWf7RZxZQoIQhOHjJrITuIgFbBcVs0ANZWFpk96dClmIlldUsjM5SDoJBLQ/C++I8VOoF5sik9kkgWOJFCoYffLmLqSd+w6IiZGW0ZvNlME0e0ERFbCgI6MHqE3nDCkLDuUsNm1ghsDE6TVwiCgDdBLwE8sB2rKgQ3tD4/vTutKYiVOlLIQ2c9mBLVtdTTt276MufQaK0EKg0aHBi3D8ehKhDCy3VkuuP7A4fZtNbm+q2Rn4n0ocnk20SvYnQWuAASBoYGgwCDFswkgLMspO8qSSkx06aGc8F2YE6tKld1B7rVm/mZatqpQzY7JGjSW7r52YH4tLV5KrbUe5D0I3UqIa2aIlYVMj9xHSn/z8lUQJ7WHUgbBDaDv36iedA7Z0Z7a3US5sZwgoBAm2+Obtu6m8cq1obQh/BTuN69hEwbM6sEkCc+HnryYKz2D+zJaOt1060sRps2gbC2j1xq2UyuYNhBiOJUYGCGvrlIDY7qUVVbRp+06q4tFnz4FD3OmqyJWaJs4tdnA1VKDrSuAzlImd+c9C/9DiTt3HptnoxJSUf2zRosUfKDGJbSS4XH8Ok8VYzxJJgk2OkYB9AREQjAhuFlLYsj1Ycy5mkwEjCYSv96Bh0sgdWXhwJjjMCwgsQp3ZudOoigV/8KgccdSyJ00VO/lF1rYoFzY1nFoIDIb/kTmTad3mbeIftGPNjqgIOheEDiZPGpcB82LvoaMSLYHG3rZrL61nrdtr4FDy8nNR9gts7qDjQ0gDnTLENNp/+Ch3uE2SFAzXj8zJFUcRZRsmG57xq4QkmXhau2kbbWfh333gMJWtWUtDuTMZcxUJNk9EFUqdSRReMKafLOdperfE/Awua4tUCCB6dNiXrgehkaBZpcFYC6HxYDYgjg2bt5qFrXLDJpq9aDFNn7uA0tneheaG8CAMd/H1KzR45FgR6MHssG7YulOGbyvbtLCNMcTDbMEQD+0J5/DU2fM0ggUIZkfJytWiESewSQGBh9kC7QyBg7DBJJnPgnycfY9ytrER79578DBVbdwiYUMfa1xJkcgdEFoUAosGL1haKkfsITa/e99Bsa0n5s2iJOYZ3k8t0uIO7BEBR0dA/F46D5dfUb2RRk+Ywp02U0aoASPGip2NzoL4PuoWjp/NS2zesJCbXL4dZrP5x0pcYho/SLSljEFc1liKWxuhASFkaFQMdxBQCBImTKBZq1lgjrJAwD7OLyqhyTPmsA3cQ4QfnQkO35nzl6jfkFGU0rYTjZowWaIZ63iox7CJODU0Lhoe9jg6DkyP0+cvSCwajiHizLBXK9ZulGgG/AksNoO5A6FB3TAaQGvCTJlXtIS1+XYWuKOUz0LelgUQAgbTDJ3M0OzQqgjvneCRYOvOPaJxK3nUwAQPGh0+AToMypd7+F7Us323XjwKLKU9LNCIhU+YNlM64UA2n2BWob6IMqF81BE8BL/AD2h4jAp4bgbb+VA26Fx4Rjj+R5LQniqBw6espCbiGHAlH88W2Cb7N7YZL4UzYdA4HXv0ZU14ng4dOyGOWzELMxpoAtuhNm40CDMYBUHZzyZAexZ8TG4MZBt0w9btrH03kYM1e0r7ztSe7VtoXNyDhh00Mpuuv3WTO8lpMTUQwcBiqf1Hj7NDmCtChQ6FewztjE6JiZor19+UjoVcozv27Kdd+w6J9nQE2otmxgiA+kM4EWVxtUnjDrmZzl98XTomNHU5jyYYQVA2hNEwOUAYlfBcTExNZ5NmB5so2/g5U2fNEz+gN49UxSsq2NFcLLF3hB1RP+OZNXkZShDo4DNdkm8VTvTSsgoaxU4wJqDAH/we7t6nJfBP2trtv2xKdnuVGDz7YCek2KZi6OEI2hvOURY7hkgeO2dBkTQCNBOEGU4aTAebv504WH2zRsipujL8s6ZCXBmJZyexM4nwGqI3iCbsZFMgjTUzHDqkZ8Q9aHgIHDpOIZsNN27+mpZx2UgRU8n28BG22WHfunhUwAlhEGYIF+qIOiEqBLPm0tXrct86HjUOHjtJ5VXrRANjVMIzviXQbIJAsDCJAxt/K9vo2/ceoLlsZqHzIdQI+x3fkdQXdcP9RhnheFZXkgAAdwx0RGh1RFzA41J2vmfkF4gZhNGqoc+BwkFEjUftd7lzjYqzuv9WNfv3C1anZyi0MhgejlEGgdHQrLAvS8pW0bgpM8QMQAeAYOJ3CByEBtoKvy1ZXi5C7u2QTr6OXak728K4DkKFIXzs5Ol08513xdRAONDVpqMI1J79hyRW/QqbDIglQ6BQNgh/Y9Z03eat9Nav3xWbHw4sJlROsM2Oo/HwLsFOEDoZFZw0AuF3RGU2sgN5jG32JctXUqeemXxtCs2av0j8A5QJgYZ2NsyicHypL6E8jBQwibAe5+S582IuIbKD0QOEa8DrdNb0V67fkNlT/C9ceaGEjiJhQ6fvM7MzMMOscx19A2zOZbtsD7Tzk4QdBIExNA9OzkVEA6nJd7AGxOQMJjww9EKgIMzG+pGgcDvkGZhYgTkzg21YlAXTAcJrdBQQpsNvvvOeTFyl9+onzuIcFuoDR46zA7lVtCAEGQJgDPMYEeCY7t5/kC5duUYTps4UWxghv2Onzsr6E2hnuYefgXvwTvh78bIyunv/gcw8vvCaWUaImu9eXzKEGo4wlhMcPn5K6o86YUEY3jO0E6L+XViRgLflVcGoDDpfuLJDhPqexekpSbS5XlZNqlEbnn/e9yOzy5vDQvigLqFGQ3ARdpvETufpcxcovfcAcewg3Gg0hKemzsqnLTt209mLl0XIBo8eJ0Mp7oVQG+VBIHAPnD4M1aXla2jkuIkykQL/ACYHrgmGBN00bXY+ffzJpxLWwypC2PEwoWCy7D98XDoayv3mWY8f+lE26jNkzAQWxpPcKc5IqFBsdL7/cfcaBCFFh8G1WPeCDrqLO38WvzM6KjZoYO1KIo8MRidDlGk5mygrKqq4A46SclDfmp0MygHmB8jqSq02uzw21XQaDUGiw+1gW/m2MUv6JAqGx9yigd59/5akQIfpgSgMGhRREUOgIQBoXEPwMLO5tKycHcLTtPfAYZq1oEBCi7BVsR7k/dsfyfQ2wpViQ3MHgkBimSvMDggW1niPnzqDktm5wjUQypp1rCtBmCBgsOGdbEIhrHj56jWJDGFtDvwNYwTAdagPoilYwYgozbbde7mzjXnUIWHq4Dq8v8nppaHZE2QCCf4MVkQGywh2jJr1QAcNKpzAER5t01pkPCMTN9EEi839M2buGcRRwfTQRghHaChoVAcPz1ffeJNu3f5Q1m38shVm9pzyN+Lh5y9flfXXmFKHFoZDCI0Zavui8SGwmMmEFocAwamEcwgnERNMhrBFmgwzChERLDGA0M+XcOU2iTxhpSLqi1AoPiHg6MRwyDHpVLamWsKHiM4Yv33nOUqoMfqxKXIWm9Hj4uL+RDWFRqQRzOfvnythKLYFv9NANQgdQmY9WWgRr95/+Bhr2lny/3AbHiAYYqqwIEFbYvnr8TPn6MDR42yHF0s4D8IBoa6p8ZqDMDLBVoZtfeDIMa7nCZnmX1BcQkXsyGLGEysY4UfgndBJrGHKEbuahZoF/KbZ4ZsUb7f/lWK5RnMi3uHp3doduPOkyaRQgjkDLXjtjRsSUkSsGbOUWEA1Z2ERnWR7/vCxE5KeEYutYMY010RJfQl1xCgF0yToj9S+FgWdPLhcNvCJye4vSHAF/q9iq0Y0ItHqbsla9aKaOasTGbb4wsVLaf2WbbKAyoiSxIJA15cg1IiAsBa/a3L51lhtPh0BiUVgStji8q43Nu+Ga+zvDSmhhm1tcXp3WRze5GdmlZ9GEDwED2FT5uvW9TBlYp1gtkGo2UE/b3EGOnwvNyx8H2Fu7TaxJrslTlUYwYhlgkDDrrY6/TdMrkCWye3+S/XaGt9HtEpK+V8sGDtlAiNGTRlEQLCjnrX0bas7dSp//r16PQ2Nb5DRIuMPTG7vBJncSHnybGpzUjAC0gH29Wdml6/Q7PbrzcIa9UOCLSVgdvk/retsaqRJIiDiNKf+zuz0VlmcnldUVTU0ng7xDu/zrC0PiCnQpKaMCuuxGWJ2+g9Y7B6nz+f7kaqWhkbjo0UL2x+b7N7FhuCFF8ynI4waWANidfmvmB2+9Li4Z3QnjEb0I9Hp7Wp1BX6bhCWkYYS1rgTbH4JtdvreTnR4R+rTpzSiDvF2z0/N7sA543z12gj2NAgCjfXwbIp8bmEHNzFJH6SpESMwmdx/aXL6KmXCRZkcJqf3dyaHd6vF7h/Cf3cxO1Nc8fZUvbBJQ0NDQ0NDQ0NDQ0NDQ0NDQ0NDQ0NDQ0NDQ0NDQ0NDQ0NDQ0NDQ0NDQ0NDo/nw3HP/H9YrR3UHTMgrAAAAAElFTkSuQmCC;" vertex="1" parent="WIyWlLk6GJQsqaUBKTNV-1">
          <mxGeometry x="770" y="240" width="185" height="184" as="geometry" />
        </mxCell>
        <mxCell id="-Vo-HyXcC2wnuTvdyI2S-42" value="FIFO" style="rounded=0;whiteSpace=wrap;html=1;" vertex="1" parent="WIyWlLk6GJQsqaUBKTNV-1">
          <mxGeometry x="410" y="390" width="100" height="120" as="geometry" />
        </mxCell>
      </root>
    </mxGraphModel>
  </diagram>
</mxfile>
